<svg width="448" height="448" viewBox="0 0 448 448" fill="none" xmlns="http://www.w3.org/2000/svg">
<path d="M275.32 161.003L174.038 188.141C173.58 188.264 173.308 188.735 173.43 189.194L180.875 216.976C180.997 217.434 181.469 217.706 181.927 217.583L214.486 208.859M283.209 190.445L234.01 203.628M174.845 194.474L158.197 198.935C157.738 199.058 157.466 199.529 157.589 199.988L161.759 215.548C161.881 216.007 162.353 216.279 162.811 216.156L179.46 211.695M157.83 202.606L147.245 205.393C146.785 205.514 146.51 205.987 146.634 206.447L149.017 215.341C149.139 215.798 149.608 216.07 150.066 215.95L160.658 213.161M279.265 175.724L283.88 192.948C284.003 193.406 284.474 193.678 284.932 193.555L304.431 188.331C304.889 188.208 305.161 187.737 305.038 187.278L295.808 152.83C295.685 152.372 295.214 152.1 294.756 152.223L275.257 157.447C274.799 157.57 274.527 158.041 274.649 158.5L279.265 175.724Z" stroke="#D4DDED" stroke-opacity="0.7" stroke-width="2" stroke-dasharray="6.87 3.44"/>
<ellipse cx="223.793" cy="205.359" rx="9.04398" ry="8.74251" stroke="#D4DDED" stroke-opacity="0.7" stroke-width="2" stroke-dasharray="6.87 3.44"/>
<path d="M229.586 215.095L229.197 214.174L227.355 214.952L227.744 215.873L229.586 215.095ZM261.022 294.691C261.237 295.2 261.824 295.438 262.333 295.223C262.841 295.008 263.08 294.422 262.865 293.913L261.022 294.691ZM229.13 219.157C229.345 219.666 229.932 219.904 230.441 219.689C230.949 219.474 231.188 218.888 230.973 218.379L229.13 219.157ZM232.36 221.663C232.145 221.154 231.558 220.916 231.049 221.131C230.54 221.346 230.302 221.932 230.517 222.441L232.36 221.663ZM233.29 229.009C233.505 229.518 234.092 229.756 234.6 229.541C235.109 229.327 235.348 228.74 235.133 228.231L233.29 229.009ZM236.519 231.515C236.305 231.007 235.718 230.768 235.209 230.983C234.7 231.198 234.462 231.784 234.677 232.293L236.519 231.515ZM237.45 238.861C237.665 239.37 238.251 239.609 238.76 239.394C239.269 239.179 239.507 238.592 239.293 238.083L237.45 238.861ZM240.679 241.368C240.464 240.859 239.878 240.62 239.369 240.835C238.86 241.05 238.622 241.637 238.837 242.145L240.679 241.368ZM241.61 248.714C241.825 249.222 242.411 249.461 242.92 249.246C243.429 249.031 243.667 248.445 243.452 247.936L241.61 248.714ZM244.839 251.22C244.624 250.711 244.038 250.473 243.529 250.688C243.02 250.902 242.782 251.489 242.997 251.998L244.839 251.22ZM245.77 258.566C245.985 259.075 246.571 259.313 247.08 259.098C247.589 258.883 247.827 258.297 247.612 257.788L245.77 258.566ZM248.999 261.072C248.784 260.563 248.197 260.325 247.689 260.54C247.18 260.755 246.942 261.341 247.156 261.85L248.999 261.072ZM249.93 268.418C250.144 268.927 250.731 269.165 251.24 268.95C251.749 268.736 251.987 268.149 251.772 267.64L249.93 268.418ZM253.159 270.924C252.944 270.415 252.357 270.177 251.848 270.392C251.34 270.607 251.101 271.193 251.316 271.702L253.159 270.924ZM254.089 278.27C254.304 278.779 254.891 279.017 255.4 278.803C255.908 278.588 256.147 278.001 255.932 277.492L254.089 278.27ZM257.319 280.777C257.104 280.268 256.517 280.029 256.008 280.244C255.5 280.459 255.261 281.046 255.476 281.554L257.319 280.777ZM258.249 288.123C258.464 288.631 259.051 288.87 259.559 288.655C260.068 288.44 260.307 287.853 260.092 287.345L258.249 288.123ZM261.478 290.629C261.264 290.12 260.677 289.882 260.168 290.096C259.659 290.311 259.421 290.898 259.636 291.407L261.478 290.629ZM227.744 215.873L229.13 219.157L230.973 218.379L229.586 215.095L227.744 215.873ZM230.517 222.441L233.29 229.009L235.133 228.231L232.36 221.663L230.517 222.441ZM234.677 232.293L237.45 238.861L239.293 238.083L236.519 231.515L234.677 232.293ZM238.837 242.145L241.61 248.714L243.452 247.936L240.679 241.368L238.837 242.145ZM242.997 251.998L245.77 258.566L247.612 257.788L244.839 251.22L242.997 251.998ZM247.156 261.85L249.93 268.418L251.772 267.64L248.999 261.072L247.156 261.85ZM251.316 271.702L254.089 278.27L255.932 277.492L253.159 270.924L251.316 271.702ZM255.476 281.554L258.249 288.123L260.092 287.345L257.319 280.777L255.476 281.554ZM259.636 291.407L261.022 294.691L262.865 293.913L261.478 290.629L259.636 291.407Z" fill="#D4DDED" fill-opacity="0.7"/>
<path d="M225 215L225 214L223 214L223 215L225 215ZM223 314C223 314.553 223.448 315 224 315C224.552 315 225 314.553 225 314L223 314ZM223 218.3C223 218.853 223.448 219.3 224 219.3C224.552 219.3 225 218.853 225 218.3L223 218.3ZM225 221.6C225 221.048 224.552 220.6 224 220.6C223.448 220.6 223 221.048 223 221.6L225 221.6ZM223 228.2C223 228.753 223.448 229.2 224 229.2C224.552 229.2 225 228.753 225 228.2L223 228.2ZM225 231.5C225 230.948 224.552 230.5 224 230.5C223.448 230.5 223 230.948 223 231.5L225 231.5ZM223 238.1C223 238.653 223.448 239.1 224 239.1C224.552 239.1 225 238.653 225 238.1L223 238.1ZM225 241.4C225 240.848 224.552 240.4 224 240.4C223.448 240.4 223 240.848 223 241.4L225 241.4ZM223 248C223 248.553 223.448 249 224 249C224.552 249 225 248.553 225 248L223 248ZM225 251.3C225 250.748 224.552 250.3 224 250.3C223.448 250.3 223 250.748 223 251.3L225 251.3ZM223 257.9C223 258.453 223.448 258.9 224 258.9C224.552 258.9 225 258.453 225 257.9L223 257.9ZM225 261.2C225 260.648 224.552 260.2 224 260.2C223.448 260.2 223 260.648 223 261.2L225 261.2ZM223 267.8C223 268.353 223.448 268.8 224 268.8C224.552 268.8 225 268.353 225 267.8L223 267.8ZM225 271.1C225 270.548 224.552 270.1 224 270.1C223.448 270.1 223 270.548 223 271.1L225 271.1ZM223 277.7C223 278.253 223.448 278.7 224 278.7C224.552 278.7 225 278.253 225 277.7L223 277.7ZM225 281C225 280.448 224.552 280 224 280C223.448 280 223 280.448 223 281L225 281ZM223 287.6C223 288.153 223.448 288.6 224 288.6C224.552 288.6 225 288.153 225 287.6L223 287.6ZM225 290.9C225 290.348 224.552 289.9 224 289.9C223.448 289.9 223 290.348 223 290.9L225 290.9ZM223 297.5C223 298.053 223.448 298.5 224 298.5C224.552 298.5 225 298.053 225 297.5L223 297.5ZM225 300.8C225 300.248 224.552 299.8 224 299.8C223.448 299.8 223 300.248 223 300.8L225 300.8ZM223 307.4C223 307.953 223.448 308.4 224 308.4C224.552 308.4 225 307.953 225 307.4L223 307.4ZM225 310.7C225 310.148 224.552 309.7 224 309.7C223.448 309.7 223 310.148 223 310.7L225 310.7ZM223 215L223 218.3L225 218.3L225 215L223 215ZM223 221.6L223 228.2L225 228.2L225 221.6L223 221.6ZM223 231.5L223 238.1L225 238.1L225 231.5L223 231.5ZM223 241.4L223 248L225 248L225 241.4L223 241.4ZM223 251.3L223 257.9L225 257.9L225 251.3L223 251.3ZM223 261.2L223 267.8L225 267.8L225 261.2L223 261.2ZM223 271.1L223 277.7L225 277.7L225 271.1L223 271.1ZM223 281L223 287.6L225 287.6L225 281L223 281ZM223 290.9L223 297.5L225 297.5L225 290.9L223 290.9ZM223 300.8L223 307.4L225 307.4L225 300.8L223 300.8ZM223 310.7L223 314L225 314L225 310.7L223 310.7Z" fill="#D4DDED" fill-opacity="0.7"/>
<path d="M217.746 213.889L218.135 212.968L219.977 213.746L219.588 214.667L217.746 213.889ZM186.31 293.485C186.095 293.994 185.508 294.232 184.999 294.017C184.491 293.802 184.252 293.216 184.467 292.707L186.31 293.485ZM218.202 217.951L217.813 218.872L215.97 218.094L216.359 217.173L218.202 217.951ZM214.973 220.457L215.361 219.536L217.204 220.314L216.815 221.235L214.973 220.457ZM214.042 227.803L213.653 228.724L211.81 227.946L212.199 227.025L214.042 227.803ZM210.813 230.309L211.202 229.388L213.044 230.166L212.655 231.087L210.813 230.309ZM209.882 237.655L209.493 238.577L207.65 237.799L208.039 236.877L209.882 237.655ZM206.653 240.161L207.042 239.24L208.884 240.018L208.495 240.939L206.653 240.161ZM205.722 247.508L205.333 248.429L203.491 247.651L203.88 246.73L205.722 247.508ZM202.493 250.014L202.882 249.092L204.724 249.87L204.336 250.792L202.493 250.014ZM201.562 257.36L201.173 258.281L199.331 257.503L199.72 256.582L201.562 257.36ZM198.333 259.866L198.722 258.945L200.565 259.723L200.176 260.644L198.333 259.866ZM197.402 267.212L197.013 268.133L195.171 267.355L195.56 266.434L197.402 267.212ZM194.173 269.718L194.562 268.797L196.405 269.575L196.016 270.496L194.173 269.718ZM193.243 277.064L192.854 277.986L191.011 277.208L191.4 276.286L193.243 277.064ZM190.014 279.57L190.402 278.649L192.245 279.427L191.856 280.348L190.014 279.57ZM189.083 286.917L188.694 287.838L186.851 287.06L187.24 286.139L189.083 286.917ZM185.854 289.423L186.243 288.501L188.085 289.279L187.696 290.201L185.854 289.423ZM219.588 214.667L218.202 217.951L216.359 217.173L217.746 213.889L219.588 214.667ZM216.815 221.235L214.042 227.803L212.199 227.025L214.973 220.457L216.815 221.235ZM212.655 231.087L209.882 237.655L208.039 236.877L210.813 230.309L212.655 231.087ZM208.495 240.939L205.722 247.508L203.88 246.73L206.653 240.161L208.495 240.939ZM204.336 250.792L201.562 257.36L199.72 256.582L202.493 250.014L204.336 250.792ZM200.176 260.644L197.402 267.212L195.56 266.434L198.333 259.866L200.176 260.644ZM196.016 270.496L193.243 277.064L191.4 276.286L194.173 269.718L196.016 270.496ZM191.856 280.348L189.083 286.917L187.24 286.139L190.014 279.57L191.856 280.348ZM187.696 290.201L186.31 293.485L184.467 292.707L185.854 289.423L187.696 290.201Z" fill="#D4DDED" fill-opacity="0.7"/>
<path d="M287.205 92.3506L287.647 93.5458L288.842 93.988L287.647 94.4303L287.205 95.6254L286.763 94.4303L285.567 93.988L286.763 93.5458L287.205 92.3506Z" fill="#D7DEEA"/>
<path d="M142.446 373.333L142.004 372.138L140.809 371.696L142.004 371.254L142.446 370.058L142.889 371.254L144.084 371.696L142.889 372.138L142.446 373.333Z" fill="#D7DEEA"/>
<path d="M261.006 43.2278L261.448 44.423L262.643 44.8652L261.448 45.3075L261.006 46.5026L260.564 45.3075L259.368 44.8652L260.564 44.423L261.006 43.2278Z" fill="#D7DEEA"/>
<path d="M168.646 422.457L168.203 421.261L167.008 420.819L168.203 420.377L168.646 419.182L169.088 420.377L170.283 420.819L169.088 421.261L168.646 422.457Z" fill="#D7DEEA"/>
<path d="M223.018 76.6313L223.46 77.8265L224.655 78.2688L223.46 78.711L223.018 79.9062L222.576 78.711L221.38 78.2688L222.576 77.8265L223.018 76.6313Z" fill="#D7DEEA"/>
<path d="M206.634 389.053L206.192 387.858L204.996 387.415L206.192 386.973L206.634 385.778L207.076 386.973L208.271 387.415L207.076 387.858L206.634 389.053Z" fill="#D7DEEA"/>
<path d="M401.824 241.029L402.267 242.224L403.462 242.666L402.267 243.109L401.824 244.304L401.382 243.109L400.187 242.666L401.382 242.224L401.824 241.029Z" fill="#E8ECF3"/>
<path d="M27.8262 224.655L27.3839 223.46L26.1888 223.018L27.3839 222.575L27.8262 221.38L28.2684 222.575L29.4636 223.018L28.2684 223.46L27.8262 224.655Z" fill="#E8ECF3"/>
<path d="M401.824 241.029L402.267 242.224L403.462 242.666L402.267 243.109L401.824 244.304L401.382 243.109L400.187 242.666L401.382 242.224L401.824 241.029Z" fill="#E8ECF3"/>
<path d="M27.8262 224.655L27.3839 223.46L26.1888 223.018L27.3839 222.575L27.8262 221.38L28.2684 222.575L29.4636 223.018L28.2684 223.46L27.8262 224.655Z" fill="#E8ECF3"/>
<path d="M418.853 188.632L419.296 189.827L420.491 190.269L419.296 190.711L418.853 191.906L418.411 190.711L417.216 190.269L418.411 189.827L418.853 188.632Z" fill="#E8ECF3"/>
<path d="M10.7971 277.052L10.3549 275.857L9.15971 275.415L10.3549 274.973L10.7971 273.778L11.2394 274.973L12.4346 275.415L11.2394 275.857L10.7971 277.052Z" fill="#E8ECF3"/>
<path d="M398.55 151.298L398.992 152.493L400.187 152.936L398.992 153.378L398.55 154.573L398.107 153.378L396.912 152.936L398.107 152.493L398.55 151.298Z" fill="#E8ECF3"/>
<path d="M31.1011 314.386L30.6588 313.191L29.4637 312.749L30.6588 312.307L31.1011 311.111L31.5434 312.307L32.7385 312.749L31.5434 313.191L31.1011 314.386Z" fill="#E8ECF3"/>
<path d="M352.047 152.608L352.489 153.803L353.684 154.246L352.489 154.688L352.047 155.883L351.605 154.688L350.409 154.246L351.605 153.803L352.047 152.608Z" fill="#E8ECF3"/>
<path d="M77.6038 313.076L77.1615 311.881L75.9664 311.439L77.1615 310.996L77.6038 309.801L78.046 310.996L79.2412 311.439L78.046 311.881L77.6038 313.076Z" fill="#E8ECF3"/>
<path d="M287.205 145.403L287.647 146.598L288.842 147.041L287.647 147.483L287.205 148.678L286.763 147.483L285.567 147.041L286.763 146.598L287.205 145.403Z" fill="#D7DEEA"/>
<path d="M142.446 320.281L142.004 319.086L140.809 318.644L142.004 318.201L142.446 317.006L142.889 318.201L144.084 318.644L142.889 319.086L142.446 320.281Z" fill="#D7DEEA"/>
<path d="M306.199 248.889L306.641 250.084L307.836 250.527L306.641 250.969L306.199 252.164L305.757 250.969L304.562 250.527L305.757 250.084L306.199 248.889Z" fill="#D7DEEA"/>
<path d="M123.452 216.795L123.01 215.6L121.815 215.157L123.01 214.715L123.452 213.52L123.894 214.715L125.089 215.157L123.894 215.6L123.452 216.795Z" fill="#D7DEEA"/>
<path d="M415.579 303.907L416.021 305.102L417.216 305.544L416.021 305.986L415.579 307.182L415.137 305.986L413.941 305.544L415.137 305.102L415.579 303.907Z" fill="#D7DEEA"/>
<path d="M14.0718 161.778L13.6295 160.582L12.4344 160.14L13.6295 159.698L14.0718 158.503L14.5141 159.698L15.7092 160.14L14.5141 160.582L14.0718 161.778Z" fill="#D7DEEA"/>
<path d="M337.637 376.608L338.08 377.804L339.275 378.246L338.08 378.688L337.637 379.883L337.195 378.688L336 378.246L337.195 377.804L337.637 376.608Z" fill="#D7DEEA"/>
<path d="M92.0135 89.0759L91.5712 87.8808L90.376 87.4385L91.5712 86.9962L92.0135 85.8011L92.4557 86.9962L93.6509 87.4385L92.4557 87.8808L92.0135 89.0759Z" fill="#D7DEEA"/>
<path d="M356.304 204.351L357.012 206.263L358.924 206.971L357.012 207.678L356.304 209.591L355.596 207.678L353.684 206.971L355.596 206.263L356.304 204.351Z" fill="#D4DDED" fill-opacity="0.5"/>
<path d="M73.3467 261.333L72.6391 259.421L70.7268 258.713L72.6391 258.006L73.3467 256.093L74.0543 258.006L75.9666 258.713L74.0543 259.421L73.3467 261.333Z" fill="#D4DDED" fill-opacity="0.5"/>
<path d="M247.579 356.304L248.287 358.216L250.199 358.924L248.287 359.632L247.579 361.544L246.872 359.632L244.959 358.924L246.872 358.216L247.579 356.304Z" fill="#D4DDED" fill-opacity="0.5"/>
<path d="M182.072 109.38L181.365 107.468L179.452 106.76L181.365 106.053L182.072 104.14L182.78 106.053L184.692 106.76L182.78 107.468L182.072 109.38Z" fill="#D4DDED" fill-opacity="0.5"/>
<path d="M316.351 170.947L317.059 172.86L318.971 173.567L317.059 174.275L316.351 176.187L315.643 174.275L313.731 173.567L315.643 172.86L316.351 170.947Z" fill="#D4DDED" fill-opacity="0.2"/>
<path d="M113.3 294.737L112.592 292.825L110.68 292.117L112.592 291.41L113.3 289.497L114.007 291.41L115.92 292.117L114.007 292.825L113.3 294.737Z" fill="#D4DDED" fill-opacity="0.2"/>
<path d="M242.339 114.619L243.047 116.532L244.959 117.239L243.047 117.947L242.339 119.859L241.632 117.947L239.719 117.239L241.632 116.532L242.339 114.619Z" fill="#D4DDED" fill-opacity="0.2"/>
<path d="M187.312 351.064L186.604 349.152L184.692 348.445L186.604 347.737L187.312 345.825L188.02 347.737L189.932 348.445L188.02 349.152L187.312 351.064Z" fill="#D4DDED" fill-opacity="0.2"/>
<path d="M163.733 213.521L163.026 211.608L161.113 210.901L163.026 210.193L163.733 208.281L164.441 210.193L166.353 210.901L164.441 211.608L163.733 213.521Z" fill="#D4DDED" fill-opacity="0.2"/>
<path d="M292.772 361.544L293.48 363.456L295.392 364.164L293.48 364.871L292.772 366.784L292.064 364.871L290.152 364.164L292.064 363.456L292.772 361.544Z" fill="#D4DDED" fill-opacity="0.2"/>
<path d="M136.879 104.14L136.171 102.228L134.259 101.52L136.171 100.813L136.879 98.9006L137.587 100.813L139.499 101.52L137.587 102.228L136.879 104.14Z" fill="#D4DDED" fill-opacity="0.2"/>
<path d="M271.158 293.427L271.866 295.339L273.778 296.046L271.866 296.754L271.158 298.666L270.45 296.754L268.538 296.046L270.45 295.339L271.158 293.427Z" fill="#D4DDED" fill-opacity="0.2"/>
<path d="M158.493 172.257L157.786 170.345L155.874 169.637L157.786 168.93L158.493 167.017L159.201 168.93L161.113 169.637L159.201 170.345L158.493 172.257Z" fill="#D4DDED" fill-opacity="0.2"/>
<path d="M346.48 109.38L347.187 111.292L349.099 112L347.187 112.708L346.48 114.62L345.772 112.708L343.86 112L345.772 111.292L346.48 109.38Z" fill="#D4DDED" fill-opacity="0.2"/>
<path d="M83.1711 356.304L82.4635 354.392L80.5512 353.684L82.4635 352.977L83.1711 351.064L83.8787 352.977L85.791 353.684L83.8787 354.392L83.1711 356.304Z" fill="#D4DDED" fill-opacity="0.2"/>
<path d="M305.217 46.5027L305.924 48.415L307.836 49.1226L305.924 49.8302L305.217 51.7425L304.509 49.8302L302.597 49.1226L304.509 48.415L305.217 46.5027Z" fill="#D4DDED" fill-opacity="0.2"/>
<path d="M124.434 419.181L123.727 417.269L121.814 416.561L123.727 415.854L124.434 413.941L125.142 415.854L127.054 416.561L125.142 417.269L124.434 419.181Z" fill="#D4DDED" fill-opacity="0.2"/>
<path d="M306.527 288.187L307.234 290.099L309.147 290.807L307.234 291.514L306.527 293.427L305.819 291.514L303.907 290.807L305.819 290.099L306.527 288.187Z" fill="#D4DDED" fill-opacity="0.2"/>
<path d="M123.125 177.497L122.417 175.585L120.505 174.877L122.417 174.17L123.125 172.257L123.832 174.17L125.744 174.877L123.832 175.585L123.125 177.497Z" fill="#D4DDED" fill-opacity="0.2"/>
<path d="M369.404 261.988L370.111 263.9L372.023 264.608L370.111 265.316L369.404 267.228L368.696 265.316L366.784 264.608L368.696 263.9L369.404 261.988Z" fill="#D4DDED" fill-opacity="0.2"/>
<path d="M60.2471 203.696L59.5395 201.784L57.6272 201.076L59.5395 200.368L60.2471 198.456L60.9547 200.368L62.8669 201.076L60.9547 201.784L60.2471 203.696Z" fill="#D4DDED" fill-opacity="0.2"/>
<path d="M297.03 336L297.472 337.195L298.667 337.638L297.472 338.08L297.03 339.275L296.587 338.08L295.392 337.638L296.587 337.195L297.03 336Z" fill="#D7DEEA"/>
<path d="M132.622 129.684L132.179 128.489L130.984 128.047L132.179 127.604L132.622 126.409L133.064 127.604L134.259 128.047L133.064 128.489L132.622 129.684Z" fill="#D7DEEA"/>
<path d="M360.561 332.07L361.004 333.265L362.199 333.708L361.004 334.15L360.561 335.345L360.119 334.15L358.924 333.708L360.119 333.265L360.561 332.07Z" fill="#F8F8FC"/>
<path d="M69.0894 133.614L68.6471 132.419L67.452 131.976L68.6471 131.534L69.0894 130.339L69.5316 131.534L70.7268 131.976L69.5316 132.419L69.0894 133.614Z" fill="#F8F8FC"/>
<path d="M264.281 419.181L264.723 420.376L265.918 420.819L264.723 421.261L264.281 422.456L263.839 421.261L262.644 420.819L263.839 420.376L264.281 419.181Z" fill="#F8F8FC"/>
<path d="M165.37 46.5027L164.928 45.3075L163.733 44.8653L164.928 44.423L165.37 43.2278L165.813 44.423L167.008 44.8653L165.813 45.3075L165.37 46.5027Z" fill="#F8F8FC"/>
<path d="M349.427 307.181L349.869 308.376L351.064 308.819L349.869 309.261L349.427 310.456L348.985 309.261L347.79 308.819L348.985 308.376L349.427 307.181Z" fill="#F8F8FC"/>
<path d="M80.2239 158.503L79.7816 157.308L78.5865 156.865L79.7816 156.423L80.2239 155.228L80.6662 156.423L81.8613 156.865L80.6662 157.308L80.2239 158.503Z" fill="#F8F8FC"/>
<path d="M237.1 318.97L237.807 320.883L239.72 321.59L237.807 322.298L237.1 324.21L236.392 322.298L234.48 321.59L236.392 320.883L237.1 318.97Z" fill="#F8F8FC"/>
<path d="M192.552 146.714L191.844 144.801L189.932 144.094L191.844 143.386L192.552 141.474L193.259 143.386L195.172 144.094L193.259 144.801L192.552 146.714Z" fill="#F8F8FC"/>
</svg>
